#!OML:ASF X:\für Bonn\!DataBase\2005_08_11_Bastian_Final\c3d\Bastian.ASF
:FULLY-SPECIFIED
:DEGREES
293
root 22.5817 16.101 -1.96358 355.883 -61.5455 38.8514
lowerback 73.4082 -7.64033 14.5712
upperback 14.2331 -0.321617 -2.90328
thorax -4.08762 0.436245 -8.84468
lowerneck -2.19365 -9.83628 5.66048
upperneck -30.7186 -10.2076 15.7711
head -8.76865 -7.82912 5.27963
rclavicle 0 4.77083e-015
rhumerus 80.1472 -15.9292 -82.6513
rradius 11.7374
rwrist 35.1834
rhand -38.6642 -12.2372
rfingers 7.12502
rthumb -11.6798 -41.8917
lclavicle 0 4.77083e-015
lhumerus -10.7057 -28.6651 83.7718
lradius 49.204
lwrist 32.8995
lhand -12.3697 -15.7607
lfingers 7.12502
lthumb 13.7007 13.7683
rfemur -71.7808 -17.2727 9.95703
rtibia 70.5304
rfoot -20.5956 -8.4052
rtoes -0.621754
lfemur -63.7181 -10.2759 -39.7799
ltibia 45.8993
lfoot -1.6023 -14.5478
ltoes -10.7613
294
root 22.5836 16.0943 -1.96373 356.119 -61.429 38.703
lowerback 73.3925 -7.55945 14.5951
upperback 14.2059 -0.200746 -2.81699
thorax -4.09816 0.478983 -8.80205
lowerneck -2.09896 -9.8689 5.86735
upperneck -30.8492 -10.2248 15.7263
head -8.85442 -7.86678 5.25585
rclavicle 1.90833e-014 -1.59028e-015
rhumerus 80.0297 -16.1057 -81.8154
rradius 11.7079
rwrist 34.5031
rhand -38.6993 -12.2985
rfingers 7.12502
rthumb -11.7137 -41.951
lclavicle 1.90833e-014 -1.59028e-015
lhumerus -10.8301 -28.7945 83.9194
lradius 49.1927
lwrist 32.9229
lhand -12.3071 -15.8396
lfingers 7.12502
lthumb 13.7611 13.6853
rfemur -71.9095 -17.3716 10.0033
rtibia 70.6187
rfoot -20.6471 -8.38688
rtoes -0.419886
lfemur -63.8556 -10.318 -39.8068
ltibia 45.9985
lfoot -1.58984 -14.6817
ltoes -10.6762
295
root 22.5862 16.0861 -1.9645 356.378 -61.3195 38.5391
lowerback 73.3452 -7.48215 14.6235
upperback 14.2005 -0.0913379 -2.74393
thorax -4.08842 0.520648 -8.77305
lowerneck -2.0309 -9.88683 6.08212
upperneck -30.9682 -10.2232 15.6833
head -8.93317 -7.89548 5.22792
rclavicle -2.54444e-014 -2.22639e-014
rhumerus 79.9554 -16.2859 -81.0522
rradius 11.6713
rwrist 33.9031
rhand -38.7174 -12.3441
rfingers 7.12502
rthumb -11.7311 -41.9956
lclavicle -2.54444e-014 -2.22639e-014
lhumerus -10.9127 -28.963 84.0191
lradius 49.1916
lwrist 33.0047
lhand -12.3066 -15.8544
lfingers 7.12502
lthumb 13.7615 13.6705
rfemur -72.0639 -17.4719 10.0859
rtibia 70.7098
rfoot -20.6772 -8.41783
rtoes -0.407546
lfemur -64.0185 -10.3888 -39.7909
ltibia 46.1024
lfoot -1.55788 -14.7725
ltoes -10.5852
296
root 22.5886 16.0787 -1.9651 356.577 -61.2166 38.4104
lowerback 73.3269 -7.39626 14.6297
upperback 14.1953 0.0163041 -2.66403
thorax -4.07828 0.559915 -8.72612
lowerneck -1.9432 -9.91705 6.26627
upperneck -31.113 -10.232 15.6624
head -9.0204 -7.93098 5.21644
rclavicle -1.49486e-013 2.70347e-014
rhumerus 79.9429 -16.4775 -80.5354
rradius 11.6153
rwrist 33.5119
rhand -38.7776 -12.303
rfingers 7.12502
rthumb -11.7892 -41.9512
lclavicle -1.49486e-013 2.70347e-014
lhumerus -11.0089 -29.0738 84.1546
lradius 49.1749
lwrist 32.994
lhand -12.2513 -15.8896
lfingers 7.12502
lthumb 13.8149 13.6317
rfemur -72.1768 -17.5535 10.1322
rtibia 70.7851
rfoot -20.7176 -8.45297
rtoes -0.357113
lfemur -64.145 -10.4526 -39.7888
ltibia 46.1985
lfoot -1.55173 -14.8541
ltoes -10.5339
297
root 22.5916 16.0719 -1.96566 356.897 -61.1044 38.1729
lowerback 73.2717 -7.33682 14.6909
upperback 14.1788 0.128271 -2.60132
thorax -4.07873 0.603496 -8.72261
lowerneck -1.81775 -9.94659 6.47929
upperneck -31.2638 -10.2237 15.6628
head -9.11946 -7.96425 5.21098
rclavicle 2.8625e-014 0
rhumerus 79.7851 -16.6662 -79.7195
rradius 11.5895
rwrist 32.8116
rhand -38.8227 -12.2652
rfingers 7.12502
rthumb -11.8327 -41.9109
lclavicle 2.8625e-014 0
lhumerus -11.1376 -29.2628 84.2519
lradius 49.1779
lwrist 33.0334
lhand -12.2076 -15.9393
lfingers 7.12502
lthumb 13.857 13.5791
rfemur -72.3134 -17.6458 10.2482
rtibia 70.8593
rfoot -20.7444 -8.49505
rtoes -0.358271
lfemur -64.2968 -10.481 -39.7814
ltibia 46.298
lfoot -1.54922 -14.9809
ltoes -10.6455
298
root 22.5947 16.0669 -1.96616 357.176 -61.0326 37.9634
lowerback 73.226 -7.23348 14.6981
upperback 14.1793 0.246913 -2.51969
thorax -4.06378 0.646379 -8.67947
lowerneck -1.73705 -9.97263 6.66069
upperneck -31.3836 -10.2348 15.6218
head -9.19779 -7.99629 5.19052
rclavicle 3.18055e-015 -4.77083e-015
rhumerus 79.7221 -16.8173 -79.1391
rradius 11.542
rwrist 32.3893
rhand -38.8852 -12.1786
rfingers 7.12502
rthumb -11.893 -41.8208
lclavicle 3.18055e-015 -4.77083e-015
lhumerus -11.2358 -29.3664 84.3854
lradius 49.1723
lwrist 33.0759
lhand -12.1726 -15.9361
lfingers 7.12502
lthumb 13.8907 13.58
rfemur -72.4288 -17.69 10.3334
rtibia 70.9177
rfoot -20.7937 -8.51102
rtoes -0.254705
lfemur -64.4403 -10.5138 -39.7359
ltibia 46.3879
lfoot -1.53921 -15.0694
ltoes -10.5931
299
root 22.5978 16.0613 -1.96652 357.442 -60.9374 37.7534
lowerback 73.1601 -7.1705 14.7044
upperback 14.1975 0.315265 -2.46107
thorax -4.03775 0.671947 -8.64294
lowerneck -1.6408 -9.96978 6.83034
upperneck -31.5116 -10.1972 15.5991
head -9.28268 -8.00678 5.17754
rclavicle -9.54166e-015 6.99722e-014
rhumerus 79.7491 -16.9352 -78.7802
rradius 11.4594
rwrist 32.1318
rhand -38.9674 -12.0251
rfingers 7.12502
rthumb -11.9723 -41.6627
lclavicle -9.54166e-015 6.99722e-014
lhumerus -11.3222 -29.4569 84.466
lradius 49.1526
lwrist 33.0862
lhand -12.18 -15.9392
lfingers 7.12502
lthumb 13.8835 13.5774
rfemur -72.5192 -17.7596 10.4257
rtibia 70.9718
rfoot -20.8338 -8.5546
rtoes -0.211675
lfemur -64.5641 -10.5605 -39.6982
ltibia 46.4796
lfoot -1.52794 -15.1589
ltoes -10.6203
300
root 22.6004 16.055 -1.96698 357.809 -60.8332 37.465
lowerback 73.0565 -7.1123 14.7479
upperback 14.2066 0.4011 -2.39441
thorax -4.01899 0.703959 -8.61896
lowerneck -1.52311 -9.99002 6.97219
upperneck -31.641 -10.1819 15.6112
head -9.3663 -8.029 5.18342
rclavicle 2.54444e-014 -1.59028e-014
rhumerus 79.6283 -17.0422 -78.1566
rradius 11.4479
rwrist 31.5968
rhand -39.0383 -11.8608
rfingers 7.12502
rthumb -12.0405 -41.4945
lclavicle 2.54444e-014 -1.59028e-014
lhumerus -11.4159 -29.5627 84.5623
lradius 49.122
lwrist 33.1556
lhand -12.1578 -15.9758
lfingers 7.12502
lthumb 13.9049 13.5393
rfemur -72.6464 -17.8288 10.5647
rtibia 71.0262
rfoot -20.8434 -8.61285
rtoes -0.177715
lfemur -64.7205 -10.6248 -39.6118
ltibia 46.5666
lfoot -1.50406 -15.2528
ltoes -10.5307
